<svg xmlns="http://www.w3.org/2000/svg" width="800" height="1400" viewBox="0 0 800 1400">
<style>
    .frame { fill:white; stroke:black; stroke-width:3; }
    .box { fill:none; stroke:black; stroke-width:2; rx:8; ry:8; }
    .label { font-family:Arial, Helvetica, sans-serif; font-size:24px; }
    .small { font-family:Arial, Helvetica, sans-serif; font-size:18px; }
    .title { font-family:Arial, Helvetica, sans-serif; font-size:34px; font-weight:bold; }
    .subtitle { font-family:Arial, Helvetica, sans-serif; font-size:22px; }
</style>
<text x="40" y="50" class="title">Music Madness – About Page – Mobile Wireframe</text>
<rect x="190" y="120" width="420" height="1120" class="frame"/>
<text x="190" y="95" class="subtitle">Mobile layout</text>
<rect x="210" y="140" width="380" height="56" class="box"/>
<text x="224" y="174" class="label">Navbar</text>
<rect x="210" y="218" width="380" height="220" class="box"/>
<text x="224" y="252" class="label">About hero</text>
<text x="224" y="278" class="label">Title + intro</text>
<rect x="210" y="460" width="380" height="260" class="box"/>
<text x="224" y="494" class="label">Features section</text>
<rect x="222" y="516" width="356" height="50" class="box"/>
<text x="236" y="549.0" class="small">Feature card</text>
<rect x="222" y="580" width="356" height="50" class="box"/>
<text x="236" y="613.0" class="small">Feature card</text>
<rect x="222" y="644" width="356" height="50" class="box"/>
<text x="236" y="677.0" class="small">Feature card</text>
<rect x="210" y="742" width="380" height="220" class="box"/>
<text x="224" y="776" class="label">What is Music Madness?</text>
<text x="224" y="802" class="label">How it works</text>
<rect x="210" y="984" width="380" height="150" class="box"/>
<text x="224" y="1018" class="label">Call to action</text>
<rect x="210" y="1156" width="380" height="60" class="box"/>
<text x="224" y="1190" class="label">Footer</text>

</svg>