<svg xmlns="http://www.w3.org/2000/svg" width="800" height="1400" viewBox="0 0 800 1400">
<style>
    .frame { fill:white; stroke:black; stroke-width:3; }
    .box { fill:none; stroke:black; stroke-width:2; rx:8; ry:8; }
    .label { font-family:Arial, Helvetica, sans-serif; font-size:24px; }
    .small { font-family:Arial, Helvetica, sans-serif; font-size:18px; }
    .title { font-family:Arial, Helvetica, sans-serif; font-size:34px; font-weight:bold; }
    .subtitle { font-family:Arial, Helvetica, sans-serif; font-size:22px; }
</style>
<text x="40" y="50" class="title">Music Madness – Homepage / Explore – Mobile Wireframe</text>
<rect x="190" y="120" width="420" height="1120" class="frame"/>
<text x="190" y="95" class="subtitle">Mobile layout</text>
<rect x="210" y="140" width="380" height="56" class="box"/>
<text x="224" y="174" class="label">Navbar</text>
<rect x="210" y="218" width="380" height="180" class="box"/>
<text x="224" y="252" class="label">Hero</text>
<text x="224" y="278" class="label">Title + intro + CTA</text>
<rect x="210" y="420" width="380" height="310" class="box"/>
<text x="224" y="454" class="label">Trending albums section</text>
<rect x="224" y="472" width="352" height="62" class="box"/>
<text x="238" y="506" class="small">Album card</text>
<rect x="224" y="554" width="352" height="62" class="box"/>
<text x="238" y="588" class="small">Album card</text>
<rect x="224" y="636" width="352" height="62" class="box"/>
<text x="238" y="670" class="small">Album card</text>
<rect x="210" y="752" width="380" height="130" class="box"/>
<text x="224" y="786" class="label">Most discussed section</text>
<rect x="210" y="904" width="380" height="150" class="box"/>
<text x="224" y="938" class="label">Browse by genre</text>
<rect x="210" y="1076" width="380" height="60" class="box"/>
<text x="224" y="1110" class="label">Footer</text>

</svg>