<svg xmlns="http://www.w3.org/2000/svg" width="800" height="1400" viewBox="0 0 800 1400">
<style>
    .frame { fill:white; stroke:black; stroke-width:3; }
    .box { fill:none; stroke:black; stroke-width:2; rx:8; ry:8; }
    .label { font-family:Arial, Helvetica, sans-serif; font-size:24px; }
    .small { font-family:Arial, Helvetica, sans-serif; font-size:18px; }
    .title { font-family:Arial, Helvetica, sans-serif; font-size:34px; font-weight:bold; }
    .subtitle { font-family:Arial, Helvetica, sans-serif; font-size:22px; }
</style>
<text x="40" y="50" class="title">Music Madness – Genre Page – Mobile Wireframe</text>
<rect x="190" y="120" width="420" height="1120" class="frame"/>
<text x="190" y="95" class="subtitle">Mobile layout</text>
<rect x="210" y="140" width="380" height="56" class="box"/>
<text x="224" y="174" class="label">Navbar</text>
<rect x="210" y="218" width="380" height="150" class="box"/>
<text x="224" y="252" class="label">Genre header</text>
<text x="224" y="278" class="label">Title + description + album/discussion count</text>
<rect x="210" y="390" width="380" height="64" class="box"/>
<text x="224" y="424" class="label">Search + sort controls</text>
<rect x="210" y="476" width="380" height="760" class="box"/>
<text x="224" y="510" class="label">Album list</text>
<rect x="222" y="531" width="356" height="112" class="box"/>
<text x="236" y="565" class="small">Album card</text>
<rect x="222" y="667" width="356" height="112" class="box"/>
<text x="236" y="701" class="small">Album card</text>
<rect x="222" y="803" width="356" height="112" class="box"/>
<text x="236" y="837" class="small">Album card</text>
<rect x="222" y="939" width="356" height="112" class="box"/>
<text x="236" y="973" class="small">Album card</text>
<rect x="222" y="1075" width="356" height="112" class="box"/>
<text x="236" y="1109" class="small">Album card</text>

</svg>