<svg xmlns="http://www.w3.org/2000/svg" width="800" height="1400" viewBox="0 0 800 1400">
<style>
    .frame { fill:white; stroke:black; stroke-width:3; }
    .box { fill:none; stroke:black; stroke-width:2; rx:8; ry:8; }
    .label { font-family:Arial, Helvetica, sans-serif; font-size:24px; }
    .small { font-family:Arial, Helvetica, sans-serif; font-size:18px; }
    .title { font-family:Arial, Helvetica, sans-serif; font-size:34px; font-weight:bold; }
    .subtitle { font-family:Arial, Helvetica, sans-serif; font-size:22px; }
</style>
<text x="40" y="50" class="title">Music Madness – Sign Up Page – Mobile Wireframe</text>
<rect x="190" y="120" width="420" height="1120" class="frame"/>
<text x="190" y="95" class="subtitle">Mobile layout</text>
<rect x="210" y="140" width="380" height="56" class="box"/>
<text x="224" y="174" class="label">Navbar</text>
<rect x="210" y="238" width="380" height="660" class="box"/>
<text x="224" y="272" class="label">Create account form</text>
<text x="224" y="298" class="label">Heading + intro</text>
<rect x="228" y="318" width="344" height="52" class="box"/>
<text x="242" y="352" class="small">Username field</text>
<rect x="228" y="390" width="344" height="52" class="box"/>
<text x="242" y="424" class="small">Email field</text>
<rect x="228" y="462" width="344" height="52" class="box"/>
<text x="242" y="496" class="small">Password field</text>
<rect x="228" y="534" width="344" height="52" class="box"/>
<text x="242" y="568" class="small">Confirm password field</text>
<rect x="228" y="606" width="344" height="56" class="box"/>
<text x="242" y="640" class="small">Primary button</text>
<rect x="228" y="682" width="344" height="70" class="box"/>
<text x="242" y="716" class="small">Login link</text>

</svg>