<svg xmlns="http://www.w3.org/2000/svg" width="1000" height="1300" viewBox="0 0 1000 1300">
<style>
    .frame { fill:white; stroke:black; stroke-width:3; }
    .box { fill:none; stroke:black; stroke-width:2; rx:8; ry:8; }
    .label { font-family:Arial, Helvetica, sans-serif; font-size:24px; }
    .small { font-family:Arial, Helvetica, sans-serif; font-size:18px; }
    .title { font-family:Arial, Helvetica, sans-serif; font-size:34px; font-weight:bold; }
    .subtitle { font-family:Arial, Helvetica, sans-serif; font-size:22px; }
</style>
<text x="40" y="50" class="title">Music Madness – About Page – Tablet Wireframe</text>
<rect x="150" y="120" width="700" height="1040" class="frame"/>
<text x="150" y="95" class="subtitle">Tablet layout</text>
<rect x="175" y="145" width="650" height="60" class="box"/>
<text x="189" y="179" class="label">Navbar</text>
<rect x="175" y="227" width="650" height="200" class="box"/>
<text x="189" y="261" class="label">About hero</text>
<text x="189" y="287" class="label">Title + intro</text>
<rect x="175" y="449" width="650" height="240" class="box"/>
<text x="189" y="483" class="label">Features section</text>
<rect x="175.0" y="505" width="315.0" height="76" class="box"/>
<text x="189.0" y="539" class="small">Feature card</text>
<rect x="510.0" y="505" width="315.0" height="76" class="box"/>
<text x="524.0" y="539" class="small">Feature card</text>
<rect x="175.0" y="601" width="650" height="76" class="box"/>
<text x="189.0" y="635" class="small">Feature card</text>
<rect x="175" y="711" width="650" height="180" class="box"/>
<text x="189" y="745" class="label">What is Music Madness?</text>
<text x="189" y="771" class="label">How it works</text>
<rect x="175" y="913" width="650" height="120" class="box"/>
<text x="189" y="947" class="label">Call to action</text>
<rect x="175" y="1055" width="650" height="60" class="box"/>
<text x="189" y="1089" class="label">Footer</text>

</svg>