<svg xmlns="http://www.w3.org/2000/svg" width="1400" height="1000" viewBox="0 0 1400 1000">
<style>
    .frame { fill:white; stroke:black; stroke-width:3; }
    .box { fill:none; stroke:black; stroke-width:2; rx:8; ry:8; }
    .label { font-family:Arial, Helvetica, sans-serif; font-size:24px; }
    .small { font-family:Arial, Helvetica, sans-serif; font-size:18px; }
    .title { font-family:Arial, Helvetica, sans-serif; font-size:34px; font-weight:bold; }
    .subtitle { font-family:Arial, Helvetica, sans-serif; font-size:22px; }
</style>
<text x="40" y="50" class="title">Music Madness – Homepage / Explore – Desktop Wireframe</text>
<rect x="150" y="110" width="1100" height="820" class="frame"/>
<text x="150" y="85" class="subtitle">Desktop layout</text>
<rect x="180" y="135" width="1040" height="60" class="box"/>
<text x="194" y="169" class="label">Navbar</text>
<rect x="180" y="217" width="1040" height="140" class="box"/>
<text x="194" y="251" class="label">Hero</text>
<text x="194" y="277" class="label">Title + intro + CTA</text>
<rect x="180" y="379" width="1040" height="240" class="box"/>
<text x="194" y="413" class="label">Trending albums section</text>
<rect x="180.0" y="431" width="333.3333333333333" height="150" class="box"/>
<text x="194.0" y="465" class="small">Album card</text>
<rect x="533.3333333333333" y="431" width="333.3333333333333" height="150" class="box"/>
<text x="547.3333333333333" y="465" class="small">Album card</text>
<rect x="886.6666666666666" y="431" width="333.3333333333333" height="150" class="box"/>
<text x="900.6666666666666" y="465" class="small">Album card</text>
<rect x="180" y="641" width="1040" height="130" class="box"/>
<text x="194" y="675" class="label">Most discussed section</text>
<rect x="180" y="793" width="1040" height="110" class="box"/>
<text x="194" y="827" class="label">Browse by genre</text>
<rect x="180" y="925" width="1040" height="60" class="box"/>
<text x="194" y="959" class="label">Footer</text>

</svg>