<svg xmlns="http://www.w3.org/2000/svg" width="1400" height="1000" viewBox="0 0 1400 1000">
<style>
    .frame { fill:white; stroke:black; stroke-width:3; }
    .box { fill:none; stroke:black; stroke-width:2; rx:8; ry:8; }
    .label { font-family:Arial, Helvetica, sans-serif; font-size:24px; }
    .small { font-family:Arial, Helvetica, sans-serif; font-size:18px; }
    .title { font-family:Arial, Helvetica, sans-serif; font-size:34px; font-weight:bold; }
    .subtitle { font-family:Arial, Helvetica, sans-serif; font-size:22px; }
</style>
<text x="40" y="50" class="title">Music Madness – Sign Up Page – Desktop Wireframe</text>
<rect x="150" y="110" width="1100" height="820" class="frame"/>
<text x="150" y="85" class="subtitle">Desktop layout</text>
<rect x="180" y="135" width="1040" height="60" class="box"/>
<text x="194" y="169" class="label">Navbar</text>
<rect x="346.4" y="237" width="707.2" height="560" class="box"/>
<text x="360.4" y="271" class="label">Create account form</text>
<text x="360.4" y="297" class="label">Heading + intro</text>
<rect x="364.4" y="317" width="671.2" height="52" class="box"/>
<text x="378.4" y="351" class="small">Username field</text>
<rect x="364.4" y="389" width="671.2" height="52" class="box"/>
<text x="378.4" y="423" class="small">Email field</text>
<rect x="364.4" y="461" width="671.2" height="52" class="box"/>
<text x="378.4" y="495" class="small">Password field</text>
<rect x="364.4" y="533" width="671.2" height="52" class="box"/>
<text x="378.4" y="567" class="small">Confirm password field</text>
<rect x="364.4" y="605" width="671.2" height="56" class="box"/>
<text x="378.4" y="639" class="small">Primary button</text>
<rect x="364.4" y="681" width="671.2" height="70" class="box"/>
<text x="378.4" y="715" class="small">Login link</text>

</svg>