<svg xmlns="http://www.w3.org/2000/svg" width="1000" height="1300" viewBox="0 0 1000 1300">
<style>
    .frame { fill:white; stroke:black; stroke-width:3; }
    .box { fill:none; stroke:black; stroke-width:2; rx:8; ry:8; }
    .label { font-family:Arial, Helvetica, sans-serif; font-size:24px; }
    .small { font-family:Arial, Helvetica, sans-serif; font-size:18px; }
    .title { font-family:Arial, Helvetica, sans-serif; font-size:34px; font-weight:bold; }
    .subtitle { font-family:Arial, Helvetica, sans-serif; font-size:22px; }
</style>
<text x="40" y="50" class="title">Music Madness – Album Discussion Page – Tablet Wireframe</text>
<rect x="150" y="120" width="700" height="1040" class="frame"/>
<text x="150" y="95" class="subtitle">Tablet layout</text>
<rect x="175" y="145" width="650" height="60" class="box"/>
<text x="189" y="179" class="label">Navbar</text>
<rect x="175" y="227" width="650" height="260" class="box"/>
<text x="189" y="261" class="label">Album header</text>
<text x="189" y="287" class="label">Cover + title + artist + genre/year + likes/dislikes + buttons</text>
<rect x="175" y="509" width="650" height="110" class="box"/>
<text x="189" y="543" class="label">Community reaction</text>
<rect x="175" y="641" width="650" height="400" class="box"/>
<text x="189" y="675" class="label">Discussion thread</text>
<rect x="189" y="697" width="622" height="70" class="box"/>
<text x="203" y="731" class="small">Comment item</text>
<rect x="189" y="783" width="622" height="70" class="box"/>
<text x="203" y="817" class="small">Comment item</text>
<rect x="189" y="869" width="622" height="70" class="box"/>
<text x="203" y="903" class="small">Comment item</text>
<rect x="175" y="1063" width="650" height="110" class="box"/>
<text x="189" y="1097" class="label">Add comment</text>
<rect x="175" y="1195" width="650" height="110" class="box"/>
<text x="189" y="1229" class="label">Related albums</text>

</svg>