<svg xmlns="http://www.w3.org/2000/svg" width="1400" height="1000" viewBox="0 0 1400 1000">
<style>
    .frame { fill:white; stroke:black; stroke-width:3; }
    .box { fill:none; stroke:black; stroke-width:2; rx:8; ry:8; }
    .label { font-family:Arial, Helvetica, sans-serif; font-size:24px; }
    .small { font-family:Arial, Helvetica, sans-serif; font-size:18px; }
    .title { font-family:Arial, Helvetica, sans-serif; font-size:34px; font-weight:bold; }
    .subtitle { font-family:Arial, Helvetica, sans-serif; font-size:22px; }
</style>
<text x="40" y="50" class="title">Music Madness – Album Discussion Page – Desktop Wireframe</text>
<rect x="150" y="110" width="1100" height="820" class="frame"/>
<text x="150" y="85" class="subtitle">Desktop layout</text>
<rect x="180" y="135" width="1040" height="60" class="box"/>
<text x="194" y="169" class="label">Navbar</text>
<rect x="180" y="217" width="1040" height="220" class="box"/>
<text x="194" y="251" class="label">Album header</text>
<text x="194" y="277" class="label">Cover + title + artist + genre/year + likes/dislikes + buttons</text>
<rect x="180" y="459" width="1040" height="110" class="box"/>
<text x="194" y="493" class="label">Community reaction</text>
<rect x="180" y="591" width="1040" height="340" class="box"/>
<text x="194" y="625" class="label">Discussion thread</text>
<rect x="194" y="647" width="1012" height="70" class="box"/>
<text x="208" y="681" class="small">Comment item</text>
<rect x="194" y="733" width="1012" height="70" class="box"/>
<text x="208" y="767" class="small">Comment item</text>
<rect x="194" y="819" width="1012" height="70" class="box"/>
<text x="208" y="853" class="small">Comment item</text>
<rect x="180" y="953" width="1040" height="110" class="box"/>
<text x="194" y="987" class="label">Add comment</text>
<rect x="180" y="1085" width="1040" height="110" class="box"/>
<text x="194" y="1119" class="label">Related albums</text>

</svg>